HIERARCHY
ROOT Hips
{
	OFFSET 0.000000 0.000000 0.000000
	CHANNELS 6 Xposition Yposition Zposition Zrotation Yrotation Xrotation 
	JOINT LHipJoint
	{
		OFFSET 0.000000 0.000000 0.000000
		CHANNELS 3 Zrotation Yrotation Xrotation
		JOINT LeftUpLeg
		{
			OFFSET 1.363060 -1.794630 0.839290
			CHANNELS 3 Zrotation Yrotation Xrotation
			JOINT LeftLeg
			{
				OFFSET 2.448110 -6.726130 0.000000
				CHANNELS 3 Zrotation Yrotation Xrotation
				JOINT LeftFoot
				{
					OFFSET 2.562200 -7.039590 0.000000
					CHANNELS 3 Zrotation Yrotation Xrotation
					JOINT LeftToeBase
					{
						OFFSET 0.157640 -0.433110 2.322550
						CHANNELS 3 Zrotation Yrotation Xrotation
						End Site
						{
							OFFSET 0.000000 0.000000 0.000000
						}
					}
				}
			}
		}
	}
	JOINT RHipJoint
	{
		OFFSET 0.000000 0.000000 0.000000
		CHANNELS 3 Zrotation Yrotation Xrotation
		JOINT RightUpLeg
		{
			OFFSET -1.305520 -1.794630 0.839290
			CHANNELS 3 Zrotation Yrotation Xrotation
			JOINT RightLeg
			{
				OFFSET -2.542530 -6.985550 0.000000
				CHANNELS 3 Zrotation Yrotation Xrotation
				JOINT RightFoot
				{
					OFFSET -2.568260 -7.056230 0.000000
					CHANNELS 3 Zrotation Yrotation Xrotation
					JOINT RightToeBase
					{
						OFFSET -0.164730 -0.452590 2.363150
						CHANNELS 3 Zrotation Yrotation Xrotation
						End Site
						{
							OFFSET 0.000000 0.000000 0.000000
						}
					}
				}
			}
		}
	}
	JOINT LowerBack
	{
		OFFSET 0.000000 0.000000 0.000000
		CHANNELS 3 Zrotation Yrotation Xrotation
		JOINT Spine
		{
			OFFSET 0.028270 2.035590 -0.193380
			CHANNELS 3 Zrotation Yrotation Xrotation
			JOINT Spine1
			{
				OFFSET 0.056720 2.048850 -0.042750
				CHANNELS 3 Zrotation Yrotation Xrotation
				JOINT Neck
				{
					OFFSET 0.000000 0.000000 0.000000
					CHANNELS 3 Zrotation Yrotation Xrotation
					JOINT Neck1
					{
						OFFSET -0.054170 1.746240 0.172020
						CHANNELS 3 Zrotation Yrotation Xrotation
						JOINT Head
						{
							OFFSET 0.104070 1.761360 -0.123970
							CHANNELS 3 Zrotation Yrotation Xrotation
							End Site
							{
								OFFSET 0.000000 0.000000 0.000000
							}
						}
					}
				}
				JOINT LeftShoulder
				{
					OFFSET 0.000000 0.000000 0.000000
					CHANNELS 3 Zrotation Yrotation Xrotation
					JOINT LeftArm
					{
						OFFSET 3.362410 1.200890 -0.311210
						CHANNELS 3 Zrotation Yrotation Xrotation
						JOINT LeftForeArm
						{
							OFFSET 4.983000 -0.000000 -0.000000
							CHANNELS 3 Zrotation Yrotation Xrotation
							JOINT LeftHand
							{
								OFFSET 3.483560 -0.000000 -0.000000
								CHANNELS 3 Zrotation Yrotation Xrotation
								JOINT LeftFingerBase
								{
									OFFSET 0.000000 0.000000 0.000000
									CHANNELS 3 Zrotation Yrotation Xrotation
									JOINT LeftHandIndex1
									{
										OFFSET 0.715260 -0.000000 -0.000000
										CHANNELS 3 Zrotation Yrotation Xrotation
										End Site
										{
											OFFSET 0.000000 0.000000 0.000000
										}
									}
								}
								JOINT LThumb
								{
									OFFSET 0.000000 0.000000 0.000000
									CHANNELS 3 Zrotation Yrotation Xrotation
									End Site
									{
										OFFSET 0.000000 0.000000 0.000000
									}
								}
							}
						}
					}
				}
				JOINT RightShoulder
				{
					OFFSET 0.000000 0.000000 0.000000
					CHANNELS 3 Zrotation Yrotation Xrotation
					JOINT RightArm
					{
						OFFSET -3.136600 1.374050 -0.404650
						CHANNELS 3 Zrotation Yrotation Xrotation
						JOINT RightForeArm
						{
							OFFSET -5.241900 -0.000000 -0.000000
							CHANNELS 3 Zrotation Yrotation Xrotation
							JOINT RightHand
							{
								OFFSET -3.444170 -0.000000 -0.000000
								CHANNELS 3 Zrotation Yrotation Xrotation
								JOINT RightFingerBase
								{
									OFFSET 0.000000 0.000000 0.000000
									CHANNELS 3 Zrotation Yrotation Xrotation
									JOINT RightHandIndex1
									{
										OFFSET -0.622530 -0.000000 -0.000000
										CHANNELS 3 Zrotation Yrotation Xrotation
										End Site
										{
											OFFSET 0.000000 0.000000 0.000000
										}
									}
								}
								JOINT RThumb
								{
									OFFSET 0.000000 0.000000 0.000000
									CHANNELS 3 Zrotation Yrotation Xrotation
									End Site
									{
										OFFSET 0.000000 0.000000 0.000000
									}
								}
							}
						}
					}
				}
			}
		}
	}
}
MOTION
Frames: 10
Frame Time: 0.008333
-14.511922 16.220571 -14.157492 170.162692 11.973730 -171.708148 -9.358414 1.943366 1.840860 -4.838434 10.810722 -13.854619 -10.554091 15.500751 45.311307 -35.013009 6.140589 21.825752 7.707187 3.246486 -13.069846 -7.043289 -10.583871 3.443774 37.086024 9.484790 -36.074761 4.022556 -12.831960 26.433640 18.810107 7.032245 12.519072 -26.591971 -13.674437 45.341359 12.121896 3.301044 4.968999 -4.662305 -2.014946 -6.409281 -8.042848 -1.396165 7.345172 -4.616401 0.225304 -14.533230 -3.992081 0.982040 17.185433 9.983539 -8.507358 8.934792 5.872383 -3.462634 0.682831 -83.243194 -28.864824 32.125026 86.151622 -72.965231 -50.481302 -22.781581 -27.592531 10.199786 0.000000 0.000000 0.000000 0.000000 0.000000 0.000000 0.000000 0.000000 0.000000 -7.259680 -0.095829 -0.824433 75.725864 4.927159 30.263132 -30.484710 79.537054 -3.494954 -11.587590 11.345283 0.263364 0.000000 -0.000000 0.000000 -0.000000 0.000000 -0.000000 -0.000000 0.000000 -0.000000 
-14.550736 16.182282 -14.382027 169.794799 12.900368 -172.178886 -9.921948 1.952337 2.270641 -3.631191 9.893305 -15.031211 -10.613888 17.222421 47.681067 -33.032249 6.122683 20.501803 7.989898 0.578864 -11.928318 -7.192994 -10.587232 3.305396 37.619232 8.730489 -35.893551 2.747550 -13.614993 28.598075 18.171331 9.612199 10.656815 -39.408387 -23.867825 65.106926 12.387051 3.306455 4.670695 -4.778727 -1.855596 -6.293314 -8.354132 -1.099776 7.572872 -4.585201 0.152461 -14.622599 -3.947881 0.916814 17.287648 9.658332 -8.585609 9.225934 5.954652 -3.422665 0.750976 -83.609622 -28.725986 32.929164 86.262004 -72.553047 -49.939276 -23.098860 -28.214595 10.522421 -0.000000 0.000000 0.000000 0.000000 0.000000 0.000000 -0.000000 -0.000000 0.000000 -7.318818 -0.275958 -0.733458 75.638810 5.142520 30.401326 -29.653899 79.464898 -3.036492 -11.020306 11.290922 0.325825 0.000000 -0.000000 0.000000 -0.000000 -0.000000 0.000000 0.000000 -0.000000 0.000000 
-14.594715 16.110360 -14.613724 169.517721 14.029783 -173.048847 -9.821300 2.578044 2.592006 -3.230997 9.467303 -15.880179 -10.494685 18.073502 50.429853 -30.843711 6.104917 18.890533 6.643060 4.084414 -12.048258 -7.820693 -11.122750 3.259206 38.735383 8.651291 -34.893788 1.992506 -13.015601 31.416405 15.542008 11.540409 7.092241 -41.797788 -24.433417 68.537370 12.506441 3.309988 4.595604 -4.486387 -1.613131 -6.016461 -8.595736 -0.835431 7.746821 -4.695771 0.091540 -14.564231 -3.722275 0.834173 17.113632 9.256906 -8.690919 9.362168 6.345936 -3.286373 0.714224 -84.431052 -28.406341 33.694540 86.342916 -72.122840 -49.843001 -22.917499 -28.458275 10.558825 -0.000000 0.000000 -0.000000 0.000000 0.000000 0.000000 -0.000000 0.000000 -0.000000 -8.080871 -0.358822 -0.577703 75.759037 5.358481 30.520151 -28.970284 79.530776 -1.830605 -11.209604 11.952505 0.332182 0.000000 -0.000000 0.000000 -0.000000 0.000000 -0.000000 -0.000000 0.000000 -0.000000 
-14.633123 16.035135 -14.846592 169.211260 14.945186 -173.665846 -9.542505 3.025477 2.836570 -2.893115 8.575769 -16.674274 -10.243828 19.427972 52.828314 -29.027000 6.407401 17.627650 6.826204 3.692160 -12.076442 -8.574935 -11.366232 3.413316 39.610844 8.959428 -34.314224 1.904842 -12.053137 34.184199 10.857871 12.499768 2.570684 -42.628990 -18.037000 70.108144 12.528228 3.195529 4.217620 -4.147242 -1.517482 -5.740873 -8.561163 -0.740476 7.997535 -5.001014 0.037946 -14.629123 -3.524252 0.803905 16.905889 8.981779 -8.758196 9.668804 6.527687 -2.819090 0.630808 -85.312818 -28.149346 34.168611 86.069443 -72.054057 -49.119261 -23.301353 -28.386695 10.646688 -0.000000 0.000000 -0.000000 -0.000000 -0.000000 -0.000000 -0.000000 0.000000 -0.000000 -9.205183 0.014322 -1.192680 75.949227 4.917448 30.517334 -27.859325 79.621280 0.780145 -24.942863 10.482870 -1.195069 0.000000 -0.000000 0.000000 0.000000 0.000000 -0.000000 -0.000000 -0.000000 -0.000000 
-14.667628 15.956607 -15.065616 168.851673 15.851978 -174.454016 -9.143207 3.328255 2.866840 -2.762634 8.436428 -17.223703 -9.980633 20.176782 55.352484 -27.143011 6.934256 16.617197 7.845193 4.624233 -14.103956 -9.203943 -11.628990 3.281729 40.434943 8.966179 -33.390309 1.027037 -12.066941 36.613966 6.744280 13.952331 -1.127278 -47.312021 -12.424543 77.848691 12.400572 3.148152 4.231508 -3.799352 -1.285484 -5.578703 -9.105311 -0.354050 8.395328 -4.629007 0.020854 -14.870371 -3.254754 0.684563 16.756969 9.023789 -8.768497 8.921872 7.512071 -2.684958 0.505092 -86.258714 -28.159880 34.482677 85.518406 -72.236608 -47.655072 -23.405103 -28.496502 10.718803 -0.000000 -0.000000 0.000000 -0.000000 -0.000000 -0.000000 -0.000000 -0.000000 0.000000 -9.492243 -0.463455 -1.084702 76.047888 5.374649 30.593808 -26.739059 79.773682 2.346062 -26.241718 10.804413 -1.363363 0.000000 -0.000000 0.000000 -0.000000 -0.000000 -0.000000 0.000000 -0.000000 -0.000000 
-14.699354 15.896847 -15.283483 168.664801 16.695830 -174.731631 -9.761472 3.727254 3.512723 -1.495972 7.710207 -19.423441 -9.329877 20.983793 57.834924 -25.511145 6.887326 15.343402 6.416587 4.157361 -11.764998 -9.260265 -11.985060 3.156785 40.803983 9.312573 -32.714525 0.183444 -11.540451 38.605584 4.325787 14.644951 -4.393479 -45.638794 -14.943895 74.952834 12.618580 3.295112 3.937028 -3.869333 -0.800394 -5.419434 -8.770060 -0.045044 8.814596 -5.026806 -0.002896 -14.930604 -3.174705 0.709602 16.740499 9.473328 -8.791590 8.111190 7.199651 -3.211414 0.328850 -86.689977 -28.046860 34.464757 83.667078 -72.227999 -46.746194 -24.198659 -28.692840 11.032169 -0.000000 0.000000 0.000000 0.000000 -0.000000 0.000000 -0.000000 0.000000 0.000000 -9.734282 -1.512286 0.150133 75.730180 7.289225 29.725089 -27.743650 79.640891 -2.966898 -0.603085 11.665436 1.570650 0.000000 -0.000000 0.000000 0.000000 0.000000 -0.000000 0.000000 0.000000 -0.000000 
-14.736697 15.819820 -15.486787 168.542893 17.697052 -175.204692 -10.035202 3.999209 3.826654 -0.436850 7.326720 -21.001744 -8.518117 21.788900 60.154282 -24.190243 6.919098 14.176696 8.036934 3.430196 -13.648123 -9.599282 -12.007341 2.996009 41.317992 9.845679 -31.726769 -0.043045 -10.626683 40.628710 0.508375 14.105680 -8.312839 -43.957744 -13.533996 72.481327 12.768812 3.202199 4.097915 -3.740015 -0.610408 -5.318199 -9.327971 0.367833 9.059889 -4.506272 -0.020635 -15.061075 -3.103972 0.585766 16.498023 9.449901 -8.907607 7.754965 7.953432 -3.020763 -0.020695 -87.391865 -27.868288 34.601648 81.068452 -72.044640 -43.954094 -23.967783 -29.043341 11.095841 -0.000000 0.000000 0.000000 -0.000000 0.000000 -0.000000 -0.000000 0.000000 0.000000 -9.572638 -1.418371 -0.153359 75.647281 7.872047 27.651834 -24.200178 79.880057 2.264786 -9.261864 12.505940 0.598280 0.000000 -0.000000 0.000000 -0.000000 0.000000 -0.000000 0.000000 0.000000 -0.000000 
-14.768123 15.759610 -15.678679 168.437520 18.545398 -175.492066 -10.691929 3.807275 4.133538 1.211253 7.306642 -22.731033 -8.314636 22.340143 62.278395 -21.910000 7.189009 13.278256 7.690818 4.510260 -13.812919 -9.458843 -11.756959 2.643357 41.217379 10.203312 -31.007000 -0.082449 -9.928785 42.501576 -2.824683 13.061817 -11.895589 -42.230034 -9.692985 70.039230 12.975632 3.218496 4.251882 -3.769918 -0.211176 -5.301780 -8.132119 0.399410 9.037416 -5.674651 -0.111922 -14.915176 -3.094925 0.666461 16.401664 10.018690 -9.419987 7.432187 6.770100 -3.252367 -0.001006 -87.821201 -27.814452 34.455247 78.525838 -72.068649 -41.286638 -23.823284 -29.378105 11.178868 0.000000 0.000000 -0.000000 -0.000000 0.000000 -0.000000 0.000000 0.000000 -0.000000 -10.780490 -1.610801 0.007932 75.460217 8.624681 25.361229 -19.533129 80.056864 5.907120 -7.581456 12.905766 0.837755 0.000000 -0.000000 0.000000 -0.000000 -0.000000 -0.000000 0.000000 -0.000000 0.000000 
-14.802928 15.702402 -15.872372 168.416084 19.434966 -175.894479 -11.545036 3.728495 4.479555 3.140201 7.611395 -24.414267 -8.190204 22.579557 64.395181 -20.037672 7.846478 12.551407 8.393443 3.474390 -14.179506 -9.137080 -11.671666 2.223980 41.044160 10.532061 -29.992082 -0.244415 -9.408263 44.268763 -5.283404 12.028057 -15.019458 -39.236532 -11.055238 65.154500 13.348888 3.346123 4.563418 -3.829440 0.085512 -5.278704 -9.846151 1.188818 10.553209 -3.957710 -0.360501 -16.298874 -3.071474 0.225380 16.264683 8.600237 -9.328003 8.151012 8.545793 -3.205405 -0.860193 -88.339822 -28.562340 34.817499 75.479841 -71.885924 -37.915207 -21.976028 -28.735964 10.378894 -0.000000 0.000000 0.000000 -0.000000 0.000000 0.000000 -0.000000 0.000000 0.000000 -8.670393 -3.245371 0.743330 75.056234 11.641115 23.252828 -13.801455 80.187684 8.669913 5.610987 13.095356 2.591477 0.000000 -0.000000 0.000000 0.000000 0.000000 0.000000 -0.000000 -0.000000 0.000000 
-14.845150 15.657357 -16.055856 168.757839 20.395151 -175.904933 -12.204431 3.934172 4.854349 4.816880 7.242055 -26.765011 -7.250274 22.725374 66.311754 -18.597482 8.012316 11.297395 8.695859 5.371661 -15.784114 -9.206257 -11.602006 1.926152 41.428838 11.266594 -28.711399 -0.136136 -9.003691 45.077665 -7.986826 10.409914 -17.272922 -35.761679 -8.937499 59.539374 13.716743 3.297289 4.739539 -3.824323 0.300979 -5.174672 -9.970169 1.431169 11.307571 -3.728045 -0.485527 -16.897925 -2.631742 0.001359 15.493800 8.157420 -9.551026 8.298232 8.713599 -2.984071 -1.299704 -88.569750 -28.760902 33.862364 71.262201 -72.030557 -33.335252 -20.478776 -28.758605 9.940152 0.000000 0.000000 0.000000 0.000000 0.000000 -0.000000 0.000000 0.000000 0.000000 -8.482510 -3.729638 1.020897 75.010870 13.876749 22.929343 -10.623805 79.405816 11.410931 5.716348 13.429930 2.670383 0.000000 -0.000000 0.000000 0.000000 -0.000000 0.000000 -0.000000 0.000000 0.000000 
